<?xml version="1.0" encoding="UTF-8"?>
<svg width="64px" height="18px" viewBox="0 0 64 18" version="1.1" xmlns="http://www.w3.org/2000/svg" xmlns:xlink="http://www.w3.org/1999/xlink">
    <defs></defs>
    <g stroke="none" stroke-width="1" fill="none" fill-rule="evenodd">
        <g transform="translate(-18.000000, -18.000000)" fill="#ff8a00">
            <path d="M24,30 L24,33 C24,34.6568542 22.6568542,36 21,36 C19.3431458,36 18,34.6568542 18,33 L18,21 C18,19.3431458 19.3431458,18 21,18 L33,18 C34.6568542,18 36,19.3431458 36,21 C36,22.6568542 34.6568542,24 33,24 L30,24 L30,27 C30,28.6568542 28.6568542,30 27,30 L24,30 Z M48.4871444,19.3219275 L48.4900017,19.3199997 L56.4899979,31.3199997 L56.4871432,31.3219258 C56.8109239,31.8008752 57,32.3783571 57,33 C57,34.6568542 55.6568542,36 54,36 C52.9647879,36 52.0520421,35.4756598 51.5128556,34.6780725 L51.5099983,34.6800003 L46,26.4150028 L40.4900017,34.6800003 L40.4871444,34.6780725 C39.9479579,35.4756598 39.0352121,36 38,36 C36.3431458,36 35,34.6568542 35,33 C35,32.3783578 35.1890756,31.8008766 35.5128556,31.3219275 L35.5099983,31.3199997 L43.5099983,19.3199997 L43.5128556,19.3219275 C44.0520421,18.5243402 44.9647879,18 46,18 C47.0352121,18 47.9479579,18.5243402 48.4871444,19.3219275 Z M69.1935193,29.3953382 L69.1900024,29.4000015 L66,27.0074997 L66,33 C66,34.6568542 64.6568542,36 63,36 C61.3431458,36 60,34.6568542 60,33 L60,21 C60,19.3431458 61.3431458,18 63,18 C63.6782763,18 64.3039787,18.2250961 64.8064807,18.6046618 L64.8099976,18.5999985 L71,23.2425003 L77.1900024,18.5999985 L77.1935193,18.6046618 C77.6960213,18.2250961 78.3217237,18 79,18 C80.6568542,18 82,19.3431458 82,21 L82,33 C82,34.6568542 80.6568542,36 79,36 C77.3431458,36 76,34.6568542 76,33 L76,27.0074997 L72.8099976,29.4000015 L72.8064807,29.3953382 C72.3039787,29.7749039 71.6782763,30 71,30 C70.3217237,30 69.6960213,29.7749039 69.1935193,29.3953382 Z"></path>
        </g>
    </g>
</svg>
