<?xml version="1.0" encoding="UTF-8"?>
<svg width="150px" height="150px" viewBox="0 0 150 150" version="1.1" xmlns="http://www.w3.org/2000/svg" xmlns:xlink="http://www.w3.org/1999/xlink">
    <!-- Generator: Sketch 43.2 (39069) - http://www.bohemiancoding.com/sketch -->
    <title>Combined Shape</title>
    <desc>Created with Sketch.</desc>
    <defs></defs>
    <g id="Page-1" stroke="none" stroke-width="1" fill="none" fill-rule="evenodd">
        <g id="sf_icon" fill-rule="nonzero" fill="#fc373e">
            <path d="M56.411535,145.020815 C48.2257877,141.701359 40.5556518,136.722174 33.9167389,130.083261 C7.36108704,103.527609 0,68 0,68 C0,68 3.158994,66.149692 8.51489335,63.2370497 C2.19570155,30.8807286 0,0 0,0 C0,0 30.8807286,2.19570155 63.2370497,8.51489335 C66.149692,3.158994 68,0 68,0 C68,0 103.527609,7.36108704 130.083261,33.9167389 C156.638913,60.4723907 156.638913,103.527609 130.083261,130.083261 C123.444348,136.722174 115.774212,141.701359 107.588465,145.020815 C91.2169701,151.659728 72.7830296,151.659728 56.411535,145.020815 Z M82,128.222 L101.101,136 L110.719,117.801 L130.366,111.518 L126,91.414 L137,74.01 L120.693,61.407 L117.899,41.026 L97.281,41.822 L82,28 L66.719,41.822 L46.101,41.026 L43.307,61.407 L27,74.01 L38,91.414 L33.634,111.518 L53.281,117.801 L62.899,136 L82,128.222 Z" id="Combined-Shape"></path>
        </g>
    </g>
</svg>
